<?xml version="1.0" encoding="UTF-8"?><svg id="Capa_1" xmlns="http://www.w3.org/2000/svg" viewBox="0 0 374.2 85.2"><defs><style>.cls-1{fill:#fff;}</style></defs><circle class="cls-1" cx="237.4" cy="36.9" r="5.7"/><circle class="cls-1" cx="287.1" cy="36.9" r="5.7"/><path class="cls-1" d="M130.3,34.4c1,1.1,1.9,2.5,2.6,4.2,.7,1.7,1.2,3.5,1.6,5.4,.3,1.9,.4,3.7,.3,5.6-.1,1.8-.4,3.5-1,4.9l-3.1,7.5-10.9-27.6h-12.8l15.2,38.2c.5,1.2,1.7,2.1,3,2.1s2.5-.8,3-2l15.5-38.2h-13.4v-.1Z"/><path class="cls-1" d="M213.2,46c.8,1.3,1.4,2.4,1.6,3.5,.2,1.1,.2,2.1-.1,3-.3,1-.8,1.9-1.6,2.8-.8,.9-1.7,2-2.8,3.1l-3,3.2V31.6h-1.4l-10.1,3.5v38.2h0v1.4h11.5v-11l1.2-1.3,4.9,12.3h10.6v-1.4h0l-8.2-18.3,8.8-9s-11.4,0-11.4,0Z"/><polygon class="cls-1" points="243.2 55.8 243.2 45.9 241.8 45.9 231.7 49.4 231.7 55.8 231.7 73.2 231.7 74.6 243.2 74.6 243.2 73.2 243.2 55.8"/><path class="cls-1" d="M275.6,46.7c-1.4-1-3-1.4-4.7-1.4-1.9,0-3.5,.5-4.6,1.4-1.2,.9-2.1,2.1-2.9,3.6v-4.4h-1.4l-10.1,3.5v25.2h11.5v-1.4h0v-19.7c.4-1.2,.9-2.3,1.5-3.2s1.3-1.4,2.2-1.4c1,0,1.7,.3,2.1,1s.6,1.4,.6,2.3-.2,1.8-.5,2.8-.7,1.7-1.2,2.3c1.1,.4,2.1,.6,3.1,.6,1.1,0,2-.2,2.8-.6,.8-.4,1.5-.9,2.1-1.6,.6-.7,1-1.4,1.3-2.2s.4-1.6,.4-2.5c-.1-1.9-.8-3.4-2.2-4.3Z"/><polygon class="cls-1" points="291.4 45.9 281.4 49.4 281.4 73.2 281.4 74.6 292.9 74.6 292.9 45.9 291.4 45.9"/><path class="cls-1" d="M323,48.8c-.8-1.3-2.1-2.3-3.9-3s-4.3-1.1-7.6-1.1c-2.1,0-4,.2-5.6,.6-1.6,.4-2.8,1-3.8,1.7s-1.7,1.5-2.2,2.3-.7,1.7-.7,2.5c0,1.5,.5,2.7,1.3,3.6,.8,1,2.1,1.4,3.7,1.4,1.2,0,2.5-.3,3.9-.9-.4-1.8-.6-3.3-.6-4.6,0-1.2,.1-2.3,.3-3,.2-.8,.5-1.4,.9-1.7s.8-.5,1.2-.5c.8,0,1.4,.3,1.8,.9,.4,.6,.7,1.4,.9,2.3,.2,1,.3,2.1,.4,3.3s.1,2.4,.1,3.7c-1.3,.7-2.9,1.3-4.5,1.8-1.7,.5-3.3,1.1-4.8,1.9-1.5,.7-2.8,1.6-3.8,2.8-1,1.1-1.6,2.6-1.6,4.5,0,1.3,.3,2.4,.8,3.3s1.2,1.7,2,2.3c.8,.6,1.8,1,2.8,1.3s2.1,.4,3.1,.4c2.8,0,4.9-1,6.3-2.8,.3,.7,.8,1.2,1.4,1.6s1.3,.6,2.2,.6h7.7v-14.3c0-2.3-.1-4.4-.2-6.2-.2-1.8-.6-3.4-1.5-4.7Zm-9.8,21.1c-.3,.5-.6,.9-1,1.1s-.7,.3-1,.3c-.7,0-1.2-.4-1.5-1.3s-.4-2.3-.4-4.3c0-1.3,.1-2.3,.3-3.1,.2-.8,.5-1.5,.8-2.1s.8-1,1.2-1.4c.5-.4,1-.7,1.6-1v11.8Z"/><path class="cls-1" d="M353.9,61.7c-.8-1.2-1.7-2.3-2.8-3.2-1.1-1-2.4-1.9-3.7-2.7-1.3-.8-2.6-1.7-3.7-2.5s-2.1-1.6-2.8-2.4c-.8-.8-1.2-1.7-1.2-2.7,0-.8,.2-1.3,.6-1.5s.9-.4,1.4-.4c.8,0,1.7,.2,2.8,.8,1.1,.6,2.1,1.4,3.2,2.4s2.1,2.2,3,3.6c1,1.4,1.8,2.8,2.4,4.3h.6l-.1-10.1c-1.6-.5-4.6-1.4-6.4-1.9s-3.7-.8-5.6-.7c-1.1,0-2.2,.2-3.4,.5-1.2,.3-2.2,.8-3.2,1.5-.9,.7-1.7,1.6-2.3,2.7-.6,1.1-.9,2.5-.9,4.2,0,1.5,.4,2.8,1.1,4s1.7,2.2,2.7,3.2c1.1,1,2.2,1.9,3.5,2.7s2.4,1.7,3.5,2.4c1.1,.8,2,1.6,2.7,2.4s1.1,1.7,1.1,2.7c0,.8-.2,1.3-.6,1.5s-.9,.4-1.4,.4c-.8,0-1.7-.3-2.8-1.1-1.1-.8-2.2-1.7-3.2-2.8-1.1-1.1-2.1-2.3-3.1-3.7-1-1.3-1.7-2.5-2.3-3.5-1.6,2.7-2.4,5-2.2,6.8,.1,1.2,.5,2.2,1.3,3s1.8,1.4,3,1.8,2.6,.7,4.1,.8c1.5,.1,3.1,.2,4.7,.1,1.2,0,2.5-.2,3.8-.5s2.5-.8,3.6-1.6c1.1-.7,2-1.6,2.7-2.7s1-2.5,1-4.1c0-1.1-.3-2.5-1.1-3.7Z"/><polygon class="cls-1" points="176.6 35 176.6 73.1 176.6 73.2 176.6 74.6 188.1 74.6 188.1 73.2 188.1 73.2 188.1 31.5 186.7 31.5 176.6 35"/><path class="cls-1" d="M167.5,48.8c-.8-1.3-2.1-2.3-3.9-3-1.8-.7-4.3-1.1-7.6-1.1-2.1,0-4,.2-5.6,.6-1.6,.4-2.8,1-3.8,1.7s-1.7,1.5-2.2,2.3-.7,1.7-.7,2.5c0,1.5,.5,2.7,1.3,3.6,.8,1,2.1,1.4,3.7,1.4,1.2,0,2.5-.3,3.9-.9-.4-1.8-.6-3.3-.6-4.6,0-1.2,.1-2.3,.3-3,.2-.8,.5-1.4,.9-1.7s.8-.5,1.2-.5c.8,0,1.4,.3,1.8,.9,.4,.6,.7,1.4,.9,2.3,.2,1,.3,2.1,.4,3.3,.1,1.2,.1,2.4,.1,3.7-1.3,.7-2.9,1.3-4.5,1.8-1.7,.5-3.3,1.1-4.8,1.9-1.5,.7-2.8,1.6-3.8,2.8-1,1.1-1.6,2.6-1.6,4.5,0,1.3,.3,2.4,.8,3.3s1.2,1.7,2,2.3c.8,.6,1.8,1,2.8,1.3s2.1,.4,3.1,.4c2.8,0,4.9-1,6.3-2.8,.3,.7,.8,1.2,1.4,1.6,.6,.4,1.3,.6,2.2,.6h7.7v-14.3c0-2.3-.1-4.4-.2-6.2-.2-1.8-.7-3.4-1.5-4.7Zm-9.9,21.1c-.3,.5-.6,.9-1,1.1s-.7,.3-1,.3c-.7,0-1.2-.4-1.5-1.3s-.4-2.3-.4-4.3c0-1.3,.1-2.3,.3-3.1s.5-1.5,.8-2.1,.8-1,1.2-1.4c.5-.4,1-.7,1.6-1v11.8h0Z"/><g><path class="cls-1" d="M42.6,0C19.1,0,0,19.1,0,42.6s19.1,42.6,42.6,42.6,42.6-19.1,42.6-42.6S66.1,0,42.6,0Zm0,77.5c-19.3,0-34.9-15.7-34.9-34.9S23.3,7.7,42.6,7.7s34.9,15.7,34.9,34.9-15.7,34.9-34.9,34.9Z"/><path class="cls-1" d="M70.1,42.9c1.9-.2,3.1-.5,3.1-.7,0-.3-1.2-.5-3.1-.7,1.9-.3,3-.6,3-.9s-1.2-.5-3.1-.6c1.9-.4,3-.8,3-1.1s-1.2-.4-3.2-.4c1.9-.5,3-.9,2.9-1.2,0-.3-1.2-.4-3.2-.3,1.8-.6,2.9-1.1,2.9-1.4-.1-.3-1.3-.3-3.2-.1,1.8-.7,2.9-1.2,2.8-1.5s-1.3-.2-3.2,.1c1.8-.8,2.8-1.4,2.7-1.7-.1-.3-1.3-.2-3.2,.2,1.7-.9,2.7-1.5,2.6-1.8s-1.3-.1-3.2,.4c1.7-1,2.6-1.7,2.5-1.9-.1-.3-1.3,0-3.1,.6,1.6-1,2.5-1.8,2.4-2.1-.1-.3-1.3,0-3.1,.7,1.6-1.1,2.4-1.9,2.3-2.2-.1-.2-1.3,.1-3.1,.9,1.5-1.2,2.3-2.1,2.2-2.3-.2-.2-1.3,.2-3,1.1,1.4-1.3,2.2-2.2,2.1-2.4-.2-.1-1.3,.4-2.9,1.4,1.4-1.4,2.1-2.3,1.9-2.5s-1.3,.3-2.9,1.4c1.3-1.4,2-2.4,1.8-2.6s-1.2,.4-2.8,1.5c1.2-1.5,1.9-2.5,1.7-2.7s-1.2,.4-2.7,1.7c1.1-1.5,1.7-2.6,1.5-2.8-.2-.2-1.2,.5-2.6,1.8,1-1.6,1.6-2.7,1.4-2.9-.2-.2-1.2,.6-2.5,1.9,1-1.7,1.4-2.8,1.2-2.9-.2-.2-1.1,.6-2.4,2.1,.9-1.7,1.3-2.8,1.1-3-.2-.2-1.1,.7-2.3,2.2,.8-1.7,1.1-2.9,.9-3-.2-.1-1.1,.7-2.2,2.3,.7-1.8,1-2.9,.7-3.1-.3-.1-1,.8-2.1,2.4,.6-1.8,.8-3,.6-3.1-.3-.1-1,.9-1.9,2.5,.5-1.9,.7-3,.4-3.1s-.9,.9-1.8,2.6c.4-1.9,.5-3.1,.2-3.2-.3-.1-.9,1-1.7,2.7,.3-1.9,.4-3.1,.1-3.2-.3-.1-.8,1-1.5,2.8,.2-1.9,.2-3.1-.1-3.2-.3-.1-.8,1-1.4,2.9,.1-1.9,0-3.1-.3-3.2-.3,0-.7,1.1-1.2,2.9,0-1.9-.1-3.1-.4-3.1s-.7,1.1-1.1,3c-.1-1.9-.3-3.1-.6-3.1s-.6,1.1-.9,3.1c-.2-1.9-.5-3.1-.7-3.1-.3,0-.5,1.2-.7,3.1-.3-1.9-.6-3-.9-3s-.5,1.2-.6,3.1c-.4-1.9-.8-3-1.1-3s-.4,1.2-.4,3.2c-.5-1.9-.9-3-1.2-2.9-.3,0-.4,1.2-.3,3.2-.6-1.8-1.1-2.9-1.4-2.9-.3,.1-.3,1.3-.1,3.2-.7-1.8-1.2-2.9-1.5-2.8s-.2,1.3,.1,3.2c-.8-1.8-1.4-2.8-1.7-2.7-.3,.1-.2,1.3,.2,3.2-.9-1.7-1.5-2.7-1.8-2.6s-.1,1.3,.4,3.2c-1-1.7-1.7-2.6-1.9-2.5-.3,.1,0,1.3,.6,3.1-1-1.6-1.8-2.5-2.1-2.4-.3,.1,0,1.3,.7,3.1-1.1-1.6-1.9-2.4-2.2-2.3-.2,.1,.1,1.3,.9,3.1-1.2-1.5-2.1-2.3-2.3-2.2-.2,.2,.2,1.3,1.1,3-1.3-1.4-2.2-2.2-2.4-2.1-.2,.2,.2,1.3,1.2,2.9-1.4-1.4-2.3-2.1-2.5-1.9s.3,1.3,1.4,2.9c-1.4-1.3-2.4-2-2.6-1.8s.4,1.2,1.5,2.8c-1.5-1.2-2.5-1.9-2.7-1.7-.2,.2,.4,1.2,1.7,2.7-1.5-1.1-2.6-1.7-2.8-1.5-.2,.2,.5,1.2,1.8,2.6-1.6-1-2.7-1.6-2.9-1.4-.2,.2,.6,1.2,1.9,2.5-1.7-1-2.8-1.4-2.9-1.2-.2,.2,.6,1.1,2.1,2.4-1.7-.9-2.8-1.3-3-1.1-.2,.2,.7,1.1,2.2,2.3-1.7-.8-2.9-1.1-3-.9s.7,1.1,2.3,2.2c-1.8-.7-2.9-1-3.1-.7-.1,.3,.8,1,2.4,2.1-1.8-.6-3-.8-3.1-.6-.1,.3,.9,1,2.5,1.9-1.9-.5-3-.7-3.1-.4-.1,.3,.9,.9,2.6,1.8-1.9-.4-3.1-.5-3.2-.2-.1,.3,1,.9,2.7,1.7-1.9-.3-3.1-.4-3.2-.1-.1,.3,1,.8,2.8,1.5-1.9-.2-3.1-.2-3.2,.1-.1,.3,1,.8,2.9,1.4-1.9-.1-3.1,0-3.2,.3,0,.3,1.1,.7,2.9,1.2-1.9,0-3.1,.1-3.1,.4s1.1,.7,3,1.1c-1.9,.1-3.1,.3-3.1,.6s1.1,.6,3.1,.9c-1.9,.2-3.1,.5-3.1,.7,0,.3,1.2,.5,3.1,.7-1.9,.3-3,.6-3,.9s1.2,.5,3.1,.6c-1.9,.4-3,.8-3,1.1s1.2,.4,3.2,.4c-1.9,.5-3,.9-2.9,1.2,0,.3,1.2,.4,3.2,.3-1.8,.6-2.9,1.1-2.9,1.4,.1,.3,1.3,.3,3.2,.1-1.8,.7-2.9,1.2-2.8,1.5s1.3,.2,3.2-.1c-1.8,.8-2.8,1.4-2.7,1.7s1.3,.2,3.2-.2c-1.7,.9-2.7,1.5-2.6,1.8s1.3,.1,3.2-.4c-1.7,1-2.6,1.7-2.5,1.9,.1,.3,1.3,0,3.1-.6-1.6,1-2.5,1.8-2.4,2.1s1.3,0,3.1-.7c-1.6,1.1-2.4,1.9-2.3,2.2,.1,.2,1.3-.1,3.1-.9-1.5,1.2-2.3,2.1-2.2,2.3,.2,.2,1.3-.2,3-1.1-1.4,1.3-2.2,2.2-2.1,2.4,.2,.2,1.3-.2,2.9-1.2-1.4,1.4-2.1,2.3-1.9,2.5s1.3-.3,2.9-1.4c-1.3,1.4-2,2.4-1.8,2.6,.2,.2,1.2-.4,2.8-1.5-1.2,1.5-1.9,2.5-1.7,2.7,.2,.2,1.2-.4,2.7-1.7-1.1,1.5-1.7,2.6-1.5,2.8s1.2-.5,2.6-1.8c-1,1.6-1.6,2.7-1.4,2.9,.2,.2,1.2-.6,2.5-1.9-1,1.7-1.4,2.8-1.2,2.9,.2,.2,1.1-.6,2.4-2.1-.9,1.7-1.3,2.8-1.1,3,.2,.2,1.1-.7,2.3-2.2-.8,1.7-1.1,2.9-.9,3s1.1-.7,2.2-2.3c-.7,1.8-1,2.9-.7,3.1,.3,.1,1-.8,2.1-2.4-.6,1.8-.8,3-.6,3.1,.3,.1,1-.9,1.9-2.5-.5,1.9-.7,3-.4,3.1,.3,.1,.9-.9,1.8-2.6-.4,1.9-.5,3.1-.2,3.2s.9-1,1.7-2.7c-.3,1.9-.4,3.1-.1,3.2,.3,.1,.8-1,1.5-2.8-.2,1.9-.2,3.1,.1,3.2s.8-1,1.4-2.9c-.1,1.9,0,3.1,.3,3.2,.3,0,.7-1.1,1.2-2.9,0,1.9,.1,3.1,.4,3.1s.7-1.1,1.1-3c.1,1.9,.3,3.1,.6,3.1s.6-1.1,.9-3.1c.2,1.9,.5,3.1,.7,3.1,.3,0,.5-1.2,.7-3.1,.3,1.9,.6,3,.9,3s.5-1.2,.6-3.1c.4,1.9,.8,3,1.1,3s.4-1.2,.4-3.2c.5,1.9,.9,3,1.2,2.9,.3,0,.4-1.2,.3-3.2,.6,1.8,1.1,2.9,1.4,2.9,.3-.1,.3-1.3,.1-3.2,.7,1.8,1.2,2.9,1.5,2.8s.2-1.3-.1-3.2c.8,1.8,1.4,2.8,1.7,2.7,.3-.1,.2-1.3-.2-3.2,.9,1.7,1.5,2.7,1.8,2.6s.1-1.3-.4-3.2c1,1.7,1.7,2.6,1.9,2.5,.3-.1,0-1.3-.6-3.1,1,1.6,1.8,2.5,2.1,2.4s0-1.3-.7-3.1c1.1,1.6,1.9,2.4,2.2,2.3,.2-.1-.1-1.3-.9-3.1,1.2,1.5,2.1,2.3,2.3,2.2,.2-.2-.2-1.3-1.1-3,1.3,1.4,2.2,2.2,2.4,2.1,.2-.2-.2-1.3-1.2-2.9,1.4,1.4,2.3,2.1,2.5,1.9s-.3-1.3-1.4-2.9c1.4,1.3,2.4,2,2.6,1.8,.2-.2-.4-1.2-1.5-2.8,1.5,1.2,2.5,1.9,2.7,1.7,.2-.2-.4-1.2-1.7-2.7,1.5,1.1,2.6,1.7,2.8,1.5s-.5-1.2-1.8-2.6c1.6,1,2.7,1.6,2.9,1.4,.2-.2-.6-1.2-1.9-2.5,1.7,1,2.8,1.4,2.9,1.2,.2-.2-.6-1.1-2.1-2.4,1.7,.9,2.8,1.3,3,1.1s-.7-1.1-2.2-2.3c1.7,.8,2.9,1.1,3,.9,.1-.2-.7-1.1-2.3-2.2,1.8,.7,2.9,1,3.1,.7,.1-.3-.8-1-2.4-2.1,1.8,.6,3,.8,3.1,.6,.1-.3-.9-1-2.5-1.9,1.9,.5,3,.7,3.1,.4s-.9-.9-2.6-1.8c1.9,.4,3.1,.5,3.2,.2s-1-.9-2.7-1.7c1.9,.3,3.1,.4,3.2,.1,.1-.3-1-.8-2.8-1.5,1.9,.2,3.1,.2,3.2-.1s-1-.8-2.9-1.4c1.9,.1,3.1,0,3.2-.3,0-.3-1.1-.7-2.9-1.2,1.9,0,3.1-.1,3.1-.4s-1.1-.7-3-1.1c1.9-.1,3.1-.3,3.1-.6-.1-.5-1.2-.8-3.1-1.1Zm-25.4,21.7c-.5,1.3-1.8,2.2-3.2,2.2s-2.7-.9-3.2-2.2L22.3,24.3h13.5l11.5,29.1,3.3-7.9c.6-1.5,1-3.2,1.1-5.2,.1-1.9,0-3.9-.4-5.9-.3-2-.9-3.9-1.6-5.7-.7-1.8-1.7-3.3-2.8-4.5h14.3l-16.5,40.4Z"/></g><path class="cls-1" d="M374.2,40.6c0,3.1-2.4,5.5-5.6,5.5s-5.6-2.4-5.6-5.5,2.5-5.5,5.6-5.5c3.1,.1,5.6,2.5,5.6,5.5Zm-9.9,0c0,2.4,1.8,4.4,4.3,4.4s4.2-1.9,4.2-4.3-1.8-4.4-4.2-4.4-4.3,1.9-4.3,4.3Zm3.4,2.9h-1.3v-5.5c.5-.1,1.2-.2,2.1-.2,1,0,1.5,.2,1.9,.4,.3,.2,.5,.7,.5,1.2,0,.6-.5,1.1-1.1,1.3v.1c.5,.2,.8,.6,1,1.3,.2,.8,.3,1.2,.4,1.4h-1.4c-.2-.2-.3-.7-.4-1.3s-.4-.9-1.1-.9h-.6v2.2Zm0-3.1h.6c.7,0,1.3-.2,1.3-.8,0-.5-.4-.8-1.2-.8-.3,0-.6,0-.7,.1v1.5h0Z"/></svg>